# xmcd CD database file
#
# Track frame offsets:
#	152
#	20630
#	44022
#	70480
#	87435
#	101210
#	112080
#	136820
#	154587
#	169802
#	187787
#	206872
#	220307
#	234132
#	260732
#	283002
#
# Disc length: 3960 seconds
#
# Revision: 0
# Processed by: cddbd v1.5.2PL0 Copyright (c) Steve Scherf et al.
# Submitted via: CDex 1.70beta2
#
DISCID=f20f7610
DTITLE=Earl Green - Feel the Fire
DYEAR=1996
DGENRE=Blues
TTITLE0=Leaving This Town
TTITLE1=You'll Never Change Her
TTITLE2=Turn My World Around
TTITLE3=Just Got Some
TTITLE4=Borderline
TTITLE5=Take My Advice
TTITLE6=She's Sweet To Me
TTITLE7=Down Home Girl
TTITLE8=Laughing To Keep From Crying
TTITLE9=Feel the Fire
TTITLE10=Living My Life Without Her
TTITLE11=Sick and Tired
TTITLE12=Beauty of the Night
TTITLE13=Turn My World Around (2)
TTITLE14=Nothing But Heartaches
TTITLE15=Dark Days
EXTD=YEAR: 1996
EXTT0=
EXTT1=
EXTT2=
EXTT3=
EXTT4=
EXTT5=
EXTT6=
EXTT7=
EXTT8=
EXTT9=
EXTT10=
EXTT11=
EXTT12=
EXTT13=
EXTT14=
EXTT15=
PLAYORDER=
